# xmcd
# 
# Track frame offsets:
#     150
#     27876
#     48146
#     64705
#     82221
#     95313
#     112337
#     126010
#     143719
#     159781
#     177485
#     193860
# 
# Disc length: 2746
# 
# Revision: 0
# Processed by: cddbd v1.5.2PL0 Copyright (c) Steve Scherf et al.
# Submitted via: fre:ac v1.0.27
# 
DISCID=a10ab80c
DTITLE=four-o-four - Error 417
DYEAR=2017
DGENRE=Quasirock
TTITLE0=2015
TTITLE1=Meg Bundy Pt. I
TTITLE2=Road
TTITLE3=Just a Matter of Time
TTITLE4=Classic Friday
TTITLE5=Torture Me
TTITLE6=Meg Bundy Pt. II
TTITLE7=Rain
TTITLE8=Dark Black Corner
TTITLE9=I Fall
TTITLE10=Just P
TTITLE11=No Way Out
EXTD=
EXTT0=
EXTT1=
EXTT2=
EXTT3=
EXTT4=
EXTT5=
EXTT6=
EXTT7=
EXTT8=
EXTT9=
EXTT10=
EXTT11=
PLAYORDER=
